<?xml version="1.0" encoding="UTF-8" standalone="no"?>
<!-- Created with Inkscape (http://www.inkscape.org/) -->

<svg
   width="82.511154mm"
   height="81.683968mm"
   viewBox="0 0 82.511154 81.683968"
   version="1.1"
   id="svg5"
   inkscapeVersion="1.1.1 (3bf5ae0d25, 2021-09-20)"
   sodipodiDocname="logo.svg"
   xmlnsInkscape="http://www.inkscape.org/namespaces/inkscape"
   xmlnsSodipodi="http://sodipodi.sourceforge.net/DTD/sodipodi-0.dtd"
   xmlns="http://www.w3.org/2000/svg"
   xmlnsSvg="http://www.w3.org/2000/svg">
  <sodipodiNamedview
     id="namedview7"
     pagecolor="#ffffff"
     bordercolor="#666666"
     borderopacity="1.0"
     inkscapePageshadow="2"
     inkscapePageopacity="0.0"
     inkscapePagecheckerboard="0"
     inkscapeDocument-units="mm"
     showgrid="false"
     inkscapeZoom="0.73406285"
     inkscapeCx="371.22162"
     inkscapeCy="418.90146"
     inkscapeWindow-width="1920"
     inkscapeWindow-height="1009"
     inkscapeWindow-x="-8"
     inkscapeWindow-y="-8"
     inkscapeWindow-maximized="1"
     inkscapeCurrent-layer="layer1" />
  <defs
     id="defs2" />
  <g
     inkscapeLabel="Calque 1"
     inkscapeGroupmode="layer"
     id="layer1"
     transform="translate(-6.898451,-7.329373)">
    <path
       style="fill:#000000;stroke-width:0.0846667"
       d="m 45.886764,88.970824 c -9.906503,-0.59627 -18.961803,-4.45395 -26.055143,-11.09983 -8.29291,-7.76979 -12.93317,-18.42428 -12.93317,-29.69583 0,-15.46369 8.75262,-29.514253 22.75133,-36.522638 7.25309,-3.6312269 15.662323,-5.0331439 23.899313,-3.9842969 13.73696,1.749179 25.82504,10.4420219 31.83906,22.8962729 3.67699,7.614582 4.87342,16.218392 3.42005,24.594372 -1.86972,10.7754 -8.08626,20.38031 -17.25314,26.6571 -6.90892,4.73071 -15.25885,7.27423 -23.62187,7.1956 -0.8927,-0.008 -1.8136,-0.0267 -2.04643,-0.0408 z m 6.096,-2.94787 c 3.56945,-0.35901 7.15027,-1.2245 10.49867,-2.53757 1.31524,-0.51577 4.31982,-1.99588 5.47771,-2.69842 2.99075,-1.81462 5.15521,-3.51558 7.60476,-5.97629 1.47957,-1.48631 2.36855,-2.50805 3.50592,-4.02951 3.61165,-4.8313 5.98905,-10.36109 6.98886,-16.256 0.4049,-2.38726 0.46808,-3.2444 0.46808,-6.35 0,-3.1056 -0.0632,-3.96274 -0.46808,-6.35 -2.16445,-12.761641 -10.82107,-23.600771 -22.90839,-28.684059 -7.76912,-3.2672849 -16.55988,-3.8892779 -24.798873,-1.754651 -9.42836,2.442784 -17.69032,8.484969 -22.86627,16.722715 -3.08292,4.906595 -4.93267,10.273375 -5.59539,16.234255 -0.19923,1.79195 -0.19903,5.87327 3.4e-4,7.66712 0.59589,5.3607 2.18783,10.3154 4.77961,14.87595 0.53766,0.94607 1.99602,3.15209 2.69417,4.0754 1.96875,2.60367 4.81575,5.4474 7.44083,7.43227 6.04642,4.57181 13.27645,7.25101 20.912683,7.74952 1.54402,0.1008 4.65967,0.0408 6.26533,-0.12073 z M 35.335251,71.267994 c -1.00048,-1.03119 -2.30469,-2.55262 -2.97679,-3.47259 -0.58279,-0.79773 -1.02167,-2.01206 -1.27708,-3.53357 -0.23367,-1.39204 -0.31034,-3.32293 -0.47573,-11.98034 -0.0431,-2.25848 -0.14521,-7.31678 -0.22681,-11.24066 l -0.14838,-7.13434 0.18925,-0.18933 c 0.18825,-0.18833 0.20594,-0.18946 3.35596,-0.21343 l 3.1667,-0.0241 -0.20165,-0.44157 c -0.35004,-0.76651 -0.47911,-1.406671 -0.52431,-2.600568 -0.0492,-1.299254 0.0753,-2.169799 0.48679,-3.404574 1.11219,-3.337237 3.53767,-5.651454 6.853103,-6.53872 l 0.77085,-0.20629 0.26495,0.537298 0.26495,0.537299 -0.17029,0.452327 c -0.16612,0.441236 -0.19069,0.463302 -1.00212,0.899999 -1.053433,0.566928 -1.533083,0.919926 -2.092993,1.540307 -0.70958,0.786213 -1.35819,2.002684 -1.70509,3.197854 l -0.12901,0.4445 h 0.44955 c 2.38576,0 4.068893,1.726154 3.921423,4.021667 -0.0239,0.372531 -0.12023,0.877361 -0.214,1.121831 l -0.17049,0.4445 h 2.9202 2.92019 l 0.64373,-0.4445 c 1.3342,-0.921282 2.26645,-2.023514 2.80441,-3.315766 0.2728,-0.655288 0.64465,-2.039399 0.71498,-2.661282 0.0391,-0.345367 0.0304,-0.364615 -0.14192,-0.314473 -0.10094,0.02938 -0.45023,0.07534 -0.77619,0.102146 -1.67079,0.137386 -3.26463,-0.750398 -3.94062,-2.194965 -1.33205,-2.846511 0.87861,-6.110354 3.98295,-5.8805 1.9541,0.144686 3.49295,1.671146 4.16521,4.131667 0.17348,0.634923 0.19465,0.896878 0.19115,2.365008 -0.004,1.571477 -0.0165,1.697899 -0.26522,2.624667 -0.5213,1.942503 -1.34489,3.463058 -2.59466,4.790378 l -0.74719,0.79354 4.83005,0.0232 4.83005,0.0232 0.1928,0.19276 c 0.19212,0.19206 0.1929,0.20313 0.21709,3.09486 l 0.0243,2.90211 0.52606,0.25965 c 0.79154,0.3907 2.97616,1.83923 3.74339,2.48209 1.19282,0.99945 2.02941,2.11642 2.83557,3.78592 0.90394,1.87196 1.23749,3.24344 1.15871,4.76438 -0.12393,2.39246 -1.02654,4.95189 -2.55769,7.25256 -1.21133,1.82011 -2.51756,2.97319 -4.54809,4.01482 l -1.16417,0.59719 v 0.33696 c 0,0.52256 -0.39715,1.61354 -1.06361,2.92173 -0.95584,1.87622 -1.11178,2.08923 -3.48035,4.75414 l -1.22283,1.37584 H 47.121384 36.300461 Z m 13.782893,-11.55728 c 3.72576,-2.68383 5.37144,-4.04815 6.33578,-5.25258 0.64278,-0.8028 1.3368,-2.14358 1.5211,-2.93864 0.28525,-1.23055 0.0969,-2.5688 -0.52911,-3.76018 -0.81642,-1.55366 -2.34035,-2.33943 -4.038,-2.08209 -1.85492,0.28117 -3.76208,1.37312 -4.75087,2.72012 l -0.31446,0.42839 -0.2114,-0.28295 c -0.39936,-0.53454 -1.67697,-1.72254 -2.15969,-2.00822 -0.85284,-0.50472 -1.52557,-0.70572 -2.514793,-0.7514 -0.65568,-0.0303 -1.03469,-0.005 -1.43933,0.0968 -1.88665,0.47369 -3.37501,1.93543 -3.62619,3.56133 -0.20205,1.30784 0.33262,3.00115 1.37329,4.34928 0.39997,0.51814 1.67868,1.77816 2.63496,2.59643 0.32596,0.27893 1.00123,0.89445 1.500593,1.36784 0.49935,0.47338 1.51125,1.31762 2.24866,1.87608 1.45984,1.10557 1.85627,1.37057 2.05041,1.37062 0.0699,2e-5 0.93342,-0.58086 1.91905,-1.29085 z m 15.48017,-1.66766 c 1.41823,-1.08008 2.68606,-2.57839 3.26826,-3.86242 0.83639,-1.84462 0.78982,-3.82016 -0.13614,-5.77487 -0.49752,-1.05028 -1.01999,-1.82181 -1.78287,-2.63275 -0.59812,-0.63581 -1.50381,-1.42343 -2.00563,-1.74417 l -0.23284,-0.14882 v 7.37574 c 0,4.05665 0.0262,7.37573 0.0583,7.37573 0.032,0 0.40597,-0.2648 0.83094,-0.58844 z"
       id="path936" />
  </g>
</svg>
