<?xml version="1.0" standalone="no"?>
<!DOCTYPE svg PUBLIC "-//W3C//DTD SVG 20010904//EN"
 "http://www.w3.org/TR/2001/REC-SVG-20010904/DTD/svg10.dtd">
<svg version="1.0" xmlns="http://www.w3.org/2000/svg"
 width="currentWidth" height="currentHeight" viewBox="0 0 500 500"
 preserveAspectRatio="xMidYMid meet">

<g transform="translate(0.000000,500.000000) scale(0.100000,-0.100000)"
fill="currentColor" stroke="none">
<path d="M1162 4750 c-434 -55 -779 -289 -1006 -683 -40 -70 -102 -251 -127
-369 -19 -92 -21 -123 -15 -283 6 -189 16 -248 74 -435 88 -283 326 -687 609
-1035 18 -22 50 -61 70 -86 165 -201 690 -741 877 -902 40 -34 115 -99 167
-145 52 -45 117 -102 144 -126 74 -64 454 -367 503 -400 l42 -29 48 33 c68 48
299 231 410 325 52 44 111 93 131 108 119 92 558 504 771 723 126 131 270 290
368 408 23 28 57 69 75 91 183 220 411 573 521 810 51 108 116 300 141 415 22
105 29 263 17 410 -9 100 -19 151 -53 255 -23 72 -54 155 -69 186 -55 108
-156 245 -250 340 -248 249 -562 379 -915 380 -190 1 -367 -33 -529 -101 -166
-70 -386 -239 -510 -394 -31 -38 -140 -213 -149 -239 -6 -16 -5 -17 -67 93
-158 280 -433 503 -731 594 -178 54 -388 76 -547 56z"/>
</g>
</svg>
